<svg width="20" height="21" viewBox="0 0 20 21" fill="none" xmlns="http://www.w3.org/2000/svg">
<path d="M3.33333 16.4334L2.55833 16.1251C2.50296 16.2644 2.4862 16.4161 2.50982 16.5642C2.53345 16.7122 2.59658 16.8512 2.69256 16.9664C2.78855 17.0816 2.91383 17.1687 3.0552 17.2186C3.19657 17.2686 3.3488 17.2794 3.49583 17.2501L3.33333 16.4334ZM7.255 15.6534L7.65 14.9193L7.38583 14.7776L7.0925 14.8359L7.255 15.6534ZM4.68667 13.0309L5.46167 13.3393L5.5975 12.9943L5.43417 12.6618L4.68667 13.0309ZM15.8333 10.6001C15.8333 13.3051 13.4558 15.6001 10.3917 15.6001V17.2668C14.2592 17.2668 17.5 14.3384 17.5 10.6001H15.8333ZM4.95083 10.6001C4.95083 7.89511 7.32917 5.60011 10.3925 5.60011V3.93344C6.525 3.93344 3.28333 6.86177 3.28333 10.6001H4.95083ZM10.3925 5.60011C13.4558 5.60011 15.8333 7.89511 15.8333 10.6001H17.5C17.5 6.86177 14.26 3.93344 10.3925 3.93344V5.60011ZM10.3917 15.6001C9.3875 15.6001 8.4525 15.3501 7.65 14.9193L6.86 16.3868C7.94654 16.9679 9.15949 17.2703 10.3917 17.2668V15.6001ZM3.49583 17.2501L7.4175 16.4701L7.0925 14.8359L3.17083 15.6159L3.49583 17.2509V17.2501ZM5.43417 12.6618C5.1159 12.0211 4.95102 11.3155 4.95083 10.6001H3.28333C3.28333 11.6001 3.51833 12.5484 3.93833 13.4001L5.43417 12.6618ZM3.9125 12.7226L2.55833 16.1259L4.10667 16.7409L5.46 13.3384L3.91167 12.7226H3.9125Z" fill="#800080"/>
<path d="M7.5 11.4335C7.96024 11.4335 8.33333 11.0604 8.33333 10.6001C8.33333 10.1399 7.96024 9.76678 7.5 9.76678C7.03976 9.76678 6.66667 10.1399 6.66667 10.6001C6.66667 11.0604 7.03976 11.4335 7.5 11.4335Z" fill="#800080"/>
<path d="M10.4167 11.4335C10.8769 11.4335 11.25 11.0604 11.25 10.6001C11.25 10.1399 10.8769 9.76678 10.4167 9.76678C9.95643 9.76678 9.58333 10.1399 9.58333 10.6001C9.58333 11.0604 9.95643 11.4335 10.4167 11.4335Z" fill="#800080"/>
<path d="M13.3333 11.4335C13.7936 11.4335 14.1667 11.0604 14.1667 10.6001C14.1667 10.1399 13.7936 9.76678 13.3333 9.76678C12.8731 9.76678 12.5 10.1399 12.5 10.6001C12.5 11.0604 12.8731 11.4335 13.3333 11.4335Z" fill="#800080"/>
</svg>
