<svg width="64" height="57" viewBox="0 0 64 57" fill="none" xmlns="http://www.w3.org/2000/svg">
<path d="M6.99989 0C5.34229 0 3.75258 0.658482 2.58047 1.83059C1.40837 3.00269 0.749893 4.5924 0.749893 6.25V21.5125C0.749893 23.1701 1.40837 24.7598 2.58047 25.9319C3.75258 27.104 5.34229 27.7625 6.99989 27.7625H15.6749C15.6749 29.9562 15.5436 32.1562 15.2874 34.35C14.8999 36.675 14.2499 38.7437 13.3499 40.55C12.4436 42.3625 11.2811 43.7812 9.85614 44.8188C8.43739 45.9812 6.63114 46.5625 4.43114 46.5625V56.25C8.04989 56.25 11.2124 55.475 13.9311 53.925C16.6262 52.3907 18.9434 50.2722 20.7124 47.725C22.4879 44.9168 23.7965 41.8394 24.5874 38.6125C25.3844 35.0515 25.7744 31.4115 25.7499 27.7625L25.7499 6.25C25.7499 4.5924 25.0914 3.00269 23.9193 1.83059C22.7472 0.658482 21.1575 0 19.4999 0H6.99989ZM44.4999 0C42.8423 0 41.2526 0.658482 40.0805 1.83059C38.9084 3.00269 38.2499 4.5924 38.2499 6.25L38.2499 21.5125C38.2499 23.1701 38.9084 24.7598 40.0805 25.9319C41.2526 27.104 42.8423 27.7625 44.4999 27.7625L53.1749 27.7625C53.1749 29.9562 53.0436 32.1562 52.7874 34.35C52.3999 36.675 51.7499 38.7437 50.8499 40.55C49.9436 42.3625 48.7811 43.7812 47.3561 44.8188C45.9374 45.9812 44.1311 46.5625 41.9311 46.5625V56.25C45.5499 56.25 48.7124 55.475 51.4311 53.925C54.1262 52.3907 56.4434 50.2722 58.2124 47.725C59.9879 44.9168 61.2965 41.8394 62.0874 38.6125C62.8844 35.0515 63.2744 31.4115 63.2499 27.7625L63.2499 6.25C63.2499 4.5924 62.5914 3.00269 61.4193 1.83059C60.2472 0.658482 58.6575 0 56.9999 0H44.4999Z" fill="#800080"/>
</svg>
