<svg width="64" height="57" viewBox="0 0 64 57" fill="none" xmlns="http://www.w3.org/2000/svg">
<path d="M57.0001 57C58.6577 57 60.2474 56.3415 61.4195 55.1694C62.5916 53.9973 63.2501 52.4076 63.2501 50.75V35.4875C63.2501 33.8299 62.5916 32.2402 61.4195 31.0681C60.2474 29.896 58.6577 29.2375 57.0001 29.2375H48.3251C48.3251 27.0438 48.4564 24.8438 48.7126 22.65C49.1001 20.325 49.7501 18.2563 50.6501 16.45C51.5564 14.6375 52.7189 13.2188 54.1439 12.1812C55.5626 11.0188 57.3689 10.4375 59.5689 10.4375V0.75C55.9501 0.75 52.7876 1.525 50.0689 3.075C47.3738 4.60929 45.0566 6.72782 43.2876 9.275C41.5121 12.0832 40.2035 15.1606 39.4126 18.3875C38.6156 21.9485 38.2256 25.5885 38.2501 29.2375V50.75C38.2501 52.4076 38.9086 53.9973 40.0807 55.1694C41.2528 56.3415 42.8425 57 44.5001 57H57.0001ZM19.5001 57C21.1577 57 22.7474 56.3415 23.9195 55.1694C25.0916 53.9973 25.7501 52.4076 25.7501 50.75V35.4875C25.7501 33.8299 25.0916 32.2402 23.9195 31.0681C22.7474 29.896 21.1577 29.2375 19.5001 29.2375H10.8251C10.8251 27.0438 10.9564 24.8438 11.2126 22.65C11.6001 20.325 12.2501 18.2563 13.1501 16.45C14.0564 14.6375 15.2189 13.2188 16.6439 12.1812C18.0626 11.0188 19.8689 10.4375 22.0689 10.4375V0.75C18.4501 0.75 15.2876 1.525 12.5689 3.075C9.87377 4.60929 7.55662 6.72782 5.78761 9.275C4.01214 12.0832 2.70351 15.1606 1.91261 18.3875C1.11564 21.9485 0.725645 25.5885 0.750106 29.2375V50.75C0.750106 52.4076 1.40859 53.9973 2.58069 55.1694C3.75279 56.3415 5.3425 57 7.00011 57H19.5001Z" fill="#800080"/>
</svg>
