<svg width="13" height="17" viewBox="0 0 13 17" fill="none" xmlns="http://www.w3.org/2000/svg">
<path d="M3.987 0.666091C4.42458 0.534158 4.89415 0.556076 5.31754 0.728197C5.74093 0.900319 6.0926 1.21226 6.314 1.61209L6.388 1.76109L7.05 3.23209C7.25091 3.67857 7.31613 4.17427 7.23754 4.65753C7.15895 5.14078 6.94003 5.59027 6.608 5.95009L6.475 6.08209L5.432 7.05509C5.244 7.23309 5.385 7.92209 6.065 9.10009C6.677 10.1601 7.175 10.6551 7.42 10.6821H7.463L7.516 10.6721L9.566 10.0451C9.84151 9.9606 10.1355 9.95725 10.4129 10.0355C10.6903 10.1137 10.9392 10.2701 11.13 10.4861L11.221 10.6011L12.578 12.4811C12.8439 12.8496 12.9765 13.2977 12.9538 13.7515C12.931 14.2054 12.7544 14.638 12.453 14.9781L12.331 15.1041L11.789 15.6181C11.3023 16.079 10.6935 16.3905 10.0349 16.5155C9.37633 16.6404 8.69573 16.5737 8.074 16.3231C6.139 15.5431 4.381 13.7611 2.784 10.9951C1.184 8.22209 0.519001 5.80509 0.816001 3.73509C0.905875 3.10936 1.16354 2.51965 1.56164 2.02859C1.95973 1.53753 2.48339 1.16345 3.077 0.946091L3.27 0.882091L3.987 0.666091Z" fill="#800080"/>
</svg>
