<svg width="18" height="17" viewBox="0 0 18 17" fill="none" xmlns="http://www.w3.org/2000/svg">
<path d="M11.3333 10.2668C12.4384 10.2668 13.4982 10.7057 14.2796 11.4871C15.061 12.2685 15.5 13.3284 15.5 14.4334V15.2668C15.5 15.7088 15.3244 16.1327 15.0118 16.4453C14.6993 16.7578 14.2754 16.9334 13.8333 16.9334H2.16667C1.72464 16.9334 1.30072 16.7578 0.988155 16.4453C0.675595 16.1327 0.5 15.7088 0.5 15.2668V14.4334C0.5 13.3284 0.938987 12.2685 1.72039 11.4871C2.50179 10.7057 3.5616 10.2668 4.66667 10.2668H11.3333ZM15.845 6.16759C15.9946 6.01654 16.1963 5.92839 16.4088 5.92118C16.6213 5.91398 16.8285 5.98825 16.988 6.12881C17.1475 6.26937 17.2473 6.46557 17.2668 6.67727C17.2864 6.88897 17.2244 7.10015 17.0933 7.26759L17.0233 7.34675L14.6667 9.70342C14.5232 9.8469 14.3323 9.93309 14.1297 9.94583C13.9272 9.95856 13.727 9.89696 13.5667 9.77259L13.4883 9.70342L12.31 8.52509C12.159 8.37547 12.0708 8.17378 12.0636 7.9613C12.0564 7.74882 12.1307 7.54162 12.2712 7.3821C12.4118 7.22259 12.608 7.12284 12.8197 7.10325C13.0314 7.08367 13.2426 7.14574 13.41 7.27675L13.4883 7.34675L14.0775 7.93592L15.845 6.16759ZM8 0.266754C9.10507 0.266754 10.1649 0.705741 10.9463 1.48714C11.7277 2.26854 12.1667 3.32835 12.1667 4.43342C12.1667 5.53849 11.7277 6.5983 10.9463 7.3797C10.1649 8.1611 9.10507 8.60009 8 8.60009C6.89493 8.60009 5.83512 8.1611 5.05372 7.3797C4.27232 6.5983 3.83333 5.53849 3.83333 4.43342C3.83333 3.32835 4.27232 2.26854 5.05372 1.48714C5.83512 0.705741 6.89493 0.266754 8 0.266754Z" fill="#800080"/>
</svg>
